<?xml version="1.0" encoding="utf-8"?>
<!-- Generator: Adobe Illustrator 16.0.0, SVG Export Plug-In . SVG Version: 6.00 Build 0)  -->
<!DOCTYPE svg PUBLIC "-//W3C//DTD SVG 1.1//EN" "http://www.w3.org/Graphics/SVG/1.1/DTD/svg11.dtd">
<svg version="1.1" id="Layer_1" xmlns="http://www.w3.org/2000/svg" xmlns:xlink="http://www.w3.org/1999/xlink" x="0px" y="0px"
	 width="2800px" height="2800px" viewBox="0 0 2800 2800" enable-background="new 0 0 2800 2800" xml:space="preserve">
<g>
	<rect fill="#FFFFFF" width="2800" height="2800"/>
	<g>
		<g>
			<polygon fill="#D9ECED" points="1736.3,911.7 1736.3,823.5 1663.1,823.5 1663.1,696.2 1617.4,696.2 1617.4,562.2 1571.7,562.2 
				1571.7,696.2 1524,696.2 1524,823.5 1455.1,823.5 1455.1,911.7 1421.8,911.7 1421.8,1920.2 1769.6,1920.2 1769.6,911.7 			"/>
			<rect x="904.8" y="704" fill="#D9ECED" width="172.4" height="1216.2"/>
			<g>
				<rect x="1769.6" y="376.2" fill="#D9ECED" width="347.8" height="1544"/>
				<g>
					<rect x="1809.2" y="443" fill="#FFFFFF" width="268.8" height="84"/>
					<rect x="1809.2" y="609.4" fill="#FFFFFF" width="268.8" height="84"/>
					<rect x="1809.2" y="775.8" fill="#FFFFFF" width="268.8" height="84"/>
					<rect x="1809.2" y="942.2" fill="#FFFFFF" width="268.8" height="84"/>
					<rect x="1809.2" y="1108.7" fill="#FFFFFF" width="268.8" height="84"/>
					<rect x="1809.2" y="1275.1" fill="#FFFFFF" width="268.8" height="84"/>
					<rect x="1809.2" y="1441.5" fill="#FFFFFF" width="268.8" height="84"/>
					<rect x="1809.2" y="1607.9" fill="#FFFFFF" width="268.8" height="84"/>
					<rect x="1809.2" y="1774.4" fill="#FFFFFF" width="268.8" height="84"/>
				</g>
			</g>
			<g>
				<rect x="1074.4" y="491.7" fill="#D9ECED" width="347.8" height="1428.5"/>
				<g>
					<rect x="1095.5" y="523.4" fill="#FFFFFF" width="22.1" height="1373.2"/>
					<rect x="1143.7" y="523.4" fill="#FFFFFF" width="22.1" height="1373.2"/>
					<rect x="1192" y="523.4" fill="#FFFFFF" width="22.1" height="1373.2"/>
					<rect x="1240.3" y="523.4" fill="#FFFFFF" width="22.1" height="1373.2"/>
					<rect x="1288.5" y="523.4" fill="#FFFFFF" width="22.1" height="1373.2"/>
					<rect x="1336.8" y="523.4" fill="#FFFFFF" width="22.1" height="1373.2"/>
					<rect x="1385" y="523.4" fill="#FFFFFF" width="22.1" height="1373.2"/>
				</g>
			</g>
		</g>
		<g>
			<g>
				<g>
					<path fill="#303E5C" d="M570.7,833.5c-0.3,0-0.7,0-1-0.1c-2.7-0.5-4.5-3.2-3.9-5.9c0.4-2.1,0.6-3.8,0.6-5.5
						c0-15.3-12.5-27.8-27.8-27.8c-1.8,0-3.6,0.2-5.4,0.5c-1.6,0.3-3.3-0.2-4.5-1.3c-1.2-1.2-1.7-2.8-1.4-4.4
						c0.3-1.6,0.4-3.2,0.4-4.8c0-15.3-12.5-27.8-27.8-27.8c-12.4,0-23.4,8.3-26.7,20.2c-0.5,1.7-1.8,3-3.5,3.5
						c-1.7,0.5-3.5,0-4.8-1.2c-5.2-5-12.1-7.8-19.3-7.8c-12.6,0-23.7,8.5-26.9,20.7c-0.3,1.3-1.2,2.4-2.3,3.1
						c-1.2,0.7-2.5,0.8-3.8,0.5c-2.4-0.7-4.9-1-7.4-1c-15.3,0-27.8,12.5-27.8,27.8c0,1.7,0.2,3.4,0.6,5.5c0.5,2.7-1.2,5.3-3.9,5.9
						c-2.7,0.5-5.3-1.2-5.9-3.9c-0.5-2.7-0.8-5.1-0.8-7.4c0-20.8,17-37.8,37.8-37.8c1.8,0,3.6,0.1,5.4,0.4
						c5.7-14.1,19.5-23.6,35.1-23.6c7.4,0,14.5,2.1,20.6,6.1c6.3-12.5,19.4-20.8,33.7-20.8c20.8,0,37.8,17,37.8,37.8
						c0,0,0,0.1,0,0.1c0.3,0,0.5,0,0.8,0c20.8,0,37.8,17,37.8,37.8c0,2.3-0.3,4.7-0.8,7.4C575.1,831.9,573,833.5,570.7,833.5z"/>
				</g>
				<g>
					<path fill="#303E5C" d="M664.5,882.6c-0.3,0-0.7,0-1-0.1c-2.7-0.5-4.5-3.2-3.9-5.9c0.3-1.7,0.5-3.1,0.5-4.4
						c0-12.4-10.1-22.5-22.5-22.5c-1.4,0-2.9,0.1-4.3,0.4c-1.6,0.3-3.3-0.2-4.5-1.3c-1.2-1.2-1.7-2.8-1.4-4.4
						c0.2-1.3,0.3-2.6,0.3-3.9c0-12.4-10.1-22.5-22.5-22.5c-10,0-18.9,6.7-21.6,16.4c-0.5,1.7-1.8,3-3.5,3.5c-1.7,0.5-3.5,0-4.8-1.2
						c-4.2-4.1-9.8-6.3-15.6-6.3c-10.2,0-19.2,6.9-21.8,16.8c-0.3,1.3-1.2,2.4-2.3,3.1c-1.2,0.7-2.5,0.8-3.8,0.5c-2-0.5-4-0.8-6-0.8
						c-12.4,0-22.5,10.1-22.5,22.5c0,1.3,0.2,2.7,0.5,4.4c0.5,2.7-1.2,5.3-3.9,5.9c-2.7,0.5-5.3-1.2-5.9-3.9
						c-0.5-2.3-0.7-4.4-0.7-6.4c0-17.9,14.6-32.5,32.5-32.5c1.3,0,2.7,0.1,4,0.2c5-11.8,16.7-19.7,29.9-19.7
						c6.1,0,11.9,1.7,16.9,4.8c5.6-10.3,16.5-17,28.6-17c17.7,0,32.1,14.2,32.5,31.8c17.9,0.1,32.4,14.6,32.4,32.5
						c0,2-0.2,4-0.7,6.4C668.9,881,666.8,882.6,664.5,882.6z"/>
				</g>
			</g>
			<g>
				<path fill="#303E5C" d="M1387.3,359.7c-0.3,0-0.7,0-1-0.1c-2.7-0.5-4.5-3.2-3.9-5.9c0.4-2.1,0.6-3.8,0.6-5.4
					c0-15.3-12.5-27.8-27.8-27.8c-1.8,0-3.6,0.2-5.4,0.5c-1.6,0.3-3.3-0.2-4.5-1.3s-1.7-2.8-1.4-4.4c0.3-1.6,0.4-3.2,0.4-4.8
					c0-15.3-12.5-27.8-27.8-27.8c-12.4,0-23.4,8.3-26.7,20.2c-0.5,1.7-1.8,3-3.5,3.5c-1.7,0.5-3.5,0-4.8-1.2
					c-5.2-5-12.1-7.8-19.3-7.8c-12.6,0-23.7,8.5-26.9,20.7c-0.3,1.3-1.2,2.4-2.3,3.1c-1.2,0.7-2.5,0.8-3.8,0.5c-2.4-0.7-4.9-1-7.4-1
					c-15.3,0-27.8,12.5-27.8,27.8c0,1.7,0.2,3.4,0.6,5.4c0.5,2.7-1.2,5.3-3.9,5.9c-2.7,0.5-5.3-1.2-5.9-3.9
					c-0.5-2.7-0.8-5.1-0.8-7.4c0-20.8,17-37.8,37.8-37.8c1.8,0,3.6,0.1,5.4,0.4c5.7-14.1,19.5-23.6,35.1-23.6
					c7.4,0,14.5,2.1,20.6,6.1c6.3-12.5,19.4-20.8,33.7-20.8c20.8,0,37.8,17,37.8,37.8c0,0,0,0.1,0,0.1c0.3,0,0.5,0,0.8,0
					c20.8,0,37.8,17,37.8,37.8c0,2.3-0.3,4.7-0.8,7.4C1391.7,358,1389.7,359.7,1387.3,359.7z"/>
			</g>
			<g>
				<path fill="#303E5C" d="M2557.1,882.6c-0.3,0-0.7,0-1-0.1c-2.7-0.5-4.5-3.2-3.9-5.9c0.3-1.7,0.5-3.1,0.5-4.4
					c0-12.4-10.1-22.5-22.5-22.5c-1.5,0-2.9,0.1-4.3,0.4c-1.6,0.3-3.3-0.2-4.5-1.3c-1.2-1.2-1.7-2.8-1.4-4.4
					c0.2-1.3,0.3-2.6,0.3-3.9c0-12.4-10.1-22.5-22.5-22.5c-10,0-18.9,6.7-21.6,16.4c-0.5,1.7-1.8,3-3.5,3.5c-1.7,0.5-3.5,0-4.8-1.2
					c-4.2-4.1-9.8-6.3-15.6-6.3c-10.2,0-19.2,6.9-21.8,16.8c-0.3,1.3-1.2,2.4-2.3,3.1c-1.2,0.7-2.5,0.8-3.8,0.5c-2-0.5-4-0.8-6-0.8
					c-12.4,0-22.5,10.1-22.5,22.5c0,1.3,0.2,2.7,0.5,4.4c0.5,2.7-1.2,5.3-3.9,5.9c-2.7,0.5-5.3-1.2-5.9-3.9
					c-0.5-2.3-0.7-4.4-0.7-6.4c0-17.9,14.6-32.5,32.5-32.5c1.3,0,2.7,0.1,4,0.2c5-11.8,16.7-19.7,29.9-19.7c6.1,0,11.9,1.7,16.9,4.8
					c5.6-10.3,16.5-17,28.6-17c17.7,0,32.1,14.2,32.5,31.8c17.9,0.1,32.4,14.6,32.4,32.5c0,2-0.2,4-0.7,6.4
					C2561.5,881,2559.5,882.6,2557.1,882.6z"/>
			</g>
			<path fill="#303E5C" d="M2358,1433.9h-17.2v-17.2c0-4.2-3.4-7.6-7.6-7.6s-7.6,3.4-7.6,7.6v17.2h-17.2c-4.2,0-7.6,3.4-7.6,7.6
				c0,4.2,3.4,7.6,7.6,7.6h17.2v17.2c0,4.2,3.4,7.6,7.6,7.6s7.6-3.4,7.6-7.6v-17.2h17.2c4.2,0,7.6-3.4,7.6-7.6
				C2365.6,1437.3,2362.2,1433.9,2358,1433.9z"/>
			<path fill="#303E5C" d="M328.2,1437.4H311v-17.2c0-4.2-3.4-7.6-7.6-7.6s-7.6,3.4-7.6,7.6v17.2h-17.2c-4.2,0-7.6,3.4-7.6,7.6
				c0,4.2,3.4,7.6,7.6,7.6h17.2v17.2c0,4.2,3.4,7.6,7.6,7.6s7.6-3.4,7.6-7.6v-17.2h17.2c4.2,0,7.6-3.4,7.6-7.6
				C335.8,1440.8,332.4,1437.4,328.2,1437.4z"/>
			<path fill="#303E5C" d="M526.9,401.1h-17.2v-17.2c0-4.2-3.4-7.6-7.6-7.6s-7.6,3.4-7.6,7.6v17.2h-17.2c-4.2,0-7.6,3.4-7.6,7.6
				c0,4.2,3.4,7.6,7.6,7.6h17.2v17.2c0,4.2,3.4,7.6,7.6,7.6s7.6-3.4,7.6-7.6v-17.2h17.2c4.2,0,7.6-3.4,7.6-7.6
				C534.5,404.5,531.1,401.1,526.9,401.1z"/>
			<path fill="#303E5C" d="M2313.3,368.6h-17.2v-17.2c0-4.2-3.4-7.6-7.6-7.6s-7.6,3.4-7.6,7.6v17.2h-17.2c-4.2,0-7.6,3.4-7.6,7.6
				c0,4.2,3.4,7.6,7.6,7.6h17.2v17.2c0,4.2,3.4,7.6,7.6,7.6s7.6-3.4,7.6-7.6v-17.2h17.2c4.2,0,7.6-3.4,7.6-7.6
				C2321,372,2317.6,368.6,2313.3,368.6z"/>
			<g>
				<g>
					<path fill="#303E5C" d="M783.2,1694.1H535.8c-4.1,0-7.5-3.4-7.5-7.5s3.4-7.5,7.5-7.5h247.4c4.1,0,7.5,3.4,7.5,7.5
						S787.3,1694.1,783.2,1694.1z"/>
				</g>
				<g>
					<path fill="#303E5C" d="M783.2,1758.9H409.1c-4.1,0-7.5-3.4-7.5-7.5s3.4-7.5,7.5-7.5h374.1c4.1,0,7.5,3.4,7.5,7.5
						S787.3,1758.9,783.2,1758.9z"/>
				</g>
				<g>
					<path fill="#303E5C" d="M783.2,1828.8H502.1c-4.1,0-7.5-3.4-7.5-7.5s3.4-7.5,7.5-7.5h281.1c4.1,0,7.5,3.4,7.5,7.5
						S787.3,1828.8,783.2,1828.8z"/>
				</g>
			</g>
			<g>
				<g>
					<path fill="#303E5C" d="M876.9,2226.5H646.2c-4.1,0-7.5-3.4-7.5-7.5s3.4-7.5,7.5-7.5h230.7c4.1,0,7.5,3.4,7.5,7.5
						S881.1,2226.5,876.9,2226.5z"/>
				</g>
				<g>
					<path fill="#303E5C" d="M939.8,2226.5h-35c-4.1,0-7.5-3.4-7.5-7.5s3.4-7.5,7.5-7.5h35c4.1,0,7.5,3.4,7.5,7.5
						S944,2226.5,939.8,2226.5z"/>
				</g>
				<g>
					<path fill="#303E5C" d="M623.6,2226.5h-35c-4.1,0-7.5-3.4-7.5-7.5s3.4-7.5,7.5-7.5h35c4.1,0,7.5,3.4,7.5,7.5
						S627.7,2226.5,623.6,2226.5z"/>
				</g>
				<g>
					<path fill="#303E5C" d="M1082.7,2226.5H967.3c-4.1,0-7.5-3.4-7.5-7.5s3.4-7.5,7.5-7.5h115.5c4.1,0,7.5,3.4,7.5,7.5
						S1086.9,2226.5,1082.7,2226.5z"/>
				</g>
				<g>
					<path fill="#303E5C" d="M1893.9,2226.5h-230.7c-4.1,0-7.5-3.4-7.5-7.5s3.4-7.5,7.5-7.5h230.7c4.1,0,7.5,3.4,7.5,7.5
						S1898,2226.5,1893.9,2226.5z"/>
				</g>
				<g>
					<path fill="#303E5C" d="M1956.8,2226.5h-35c-4.1,0-7.5-3.4-7.5-7.5s3.4-7.5,7.5-7.5h35c4.1,0,7.5,3.4,7.5,7.5
						S1960.9,2226.5,1956.8,2226.5z"/>
				</g>
				<g>
					<path fill="#303E5C" d="M1640.5,2226.5h-35c-4.1,0-7.5-3.4-7.5-7.5s3.4-7.5,7.5-7.5h35c4.1,0,7.5,3.4,7.5,7.5
						S1644.7,2226.5,1640.5,2226.5z"/>
				</g>
				<g>
					<path fill="#303E5C" d="M2099.7,2226.5h-115.5c-4.1,0-7.5-3.4-7.5-7.5s3.4-7.5,7.5-7.5h115.5c4.1,0,7.5,3.4,7.5,7.5
						S2103.8,2226.5,2099.7,2226.5z"/>
				</g>
				<g>
					<path fill="#303E5C" d="M1483.6,2347.7h-230.7c-4.1,0-7.5-3.4-7.5-7.5s3.4-7.5,7.5-7.5h230.7c4.1,0,7.5,3.4,7.5,7.5
						S1487.8,2347.7,1483.6,2347.7z"/>
				</g>
				<g>
					<path fill="#303E5C" d="M1546.5,2347.7h-35c-4.1,0-7.5-3.4-7.5-7.5s3.4-7.5,7.5-7.5h35c4.1,0,7.5,3.4,7.5,7.5
						S1550.6,2347.7,1546.5,2347.7z"/>
				</g>
				<g>
					<path fill="#303E5C" d="M1230.3,2347.7h-35c-4.1,0-7.5-3.4-7.5-7.5s3.4-7.5,7.5-7.5h35c4.1,0,7.5,3.4,7.5,7.5
						S1234.4,2347.7,1230.3,2347.7z"/>
				</g>
				<g>
					<path fill="#303E5C" d="M1689.4,2347.7h-115.5c-4.1,0-7.5-3.4-7.5-7.5s3.4-7.5,7.5-7.5h115.5c4.1,0,7.5,3.4,7.5,7.5
						S1693.5,2347.7,1689.4,2347.7z"/>
				</g>
				<g>
					<path fill="#303E5C" d="M2185.1,2427.7h-230.7c-4.1,0-7.5-3.4-7.5-7.5s3.4-7.5,7.5-7.5h230.7c4.1,0,7.5,3.4,7.5,7.5
						S2189.3,2427.7,2185.1,2427.7z"/>
				</g>
				<g>
					<path fill="#303E5C" d="M2248,2427.7h-35c-4.1,0-7.5-3.4-7.5-7.5s3.4-7.5,7.5-7.5h35c4.1,0,7.5,3.4,7.5,7.5
						S2252.2,2427.7,2248,2427.7z"/>
				</g>
				<g>
					<path fill="#303E5C" d="M1931.8,2427.7h-35c-4.1,0-7.5-3.4-7.5-7.5s3.4-7.5,7.5-7.5h35c4.1,0,7.5,3.4,7.5,7.5
						S1935.9,2427.7,1931.8,2427.7z"/>
				</g>
				<g>
					<path fill="#303E5C" d="M2390.9,2427.7h-115.5c-4.1,0-7.5-3.4-7.5-7.5s3.4-7.5,7.5-7.5h115.5c4.1,0,7.5,3.4,7.5,7.5
						S2395,2427.7,2390.9,2427.7z"/>
				</g>
				<g>
					<path fill="#303E5C" d="M853,2427.7H622.3c-4.1,0-7.5-3.4-7.5-7.5s3.4-7.5,7.5-7.5H853c4.1,0,7.5,3.4,7.5,7.5
						S857.1,2427.7,853,2427.7z"/>
				</g>
				<g>
					<path fill="#303E5C" d="M915.8,2427.7h-35c-4.1,0-7.5-3.4-7.5-7.5s3.4-7.5,7.5-7.5h35c4.1,0,7.5,3.4,7.5,7.5
						S920,2427.7,915.8,2427.7z"/>
				</g>
				<g>
					<path fill="#303E5C" d="M599.6,2427.7h-35c-4.1,0-7.5-3.4-7.5-7.5s3.4-7.5,7.5-7.5h35c4.1,0,7.5,3.4,7.5,7.5
						S603.8,2427.7,599.6,2427.7z"/>
				</g>
				<g>
					<path fill="#303E5C" d="M1058.7,2427.7H943.3c-4.1,0-7.5-3.4-7.5-7.5s3.4-7.5,7.5-7.5h115.5c4.1,0,7.5,3.4,7.5,7.5
						S1062.9,2427.7,1058.7,2427.7z"/>
				</g>
			</g>
		</g>
	</g>
	<g>
		<g>
			<g>
				<g>
					
						<rect x="860.8" y="1399.3" transform="matrix(0.9483 -0.3172 0.3172 0.9483 -424.6284 354.1997)" fill="#8D8C8A" width="29" height="163.5"/>
					<path fill="#303E5C" d="M882.8,1572.6l-56.6-169.3l41.8-14l56.6,169.3L882.8,1572.6z M845.1,1412.8l47.1,140.8l13.3-4.5
						l-47.1-140.8L845.1,1412.8z"/>
				</g>
				<g>
					
						<rect x="1046" y="1399.3" transform="matrix(0.9483 -0.3172 0.3172 0.9483 -415.0398 412.9153)" fill="#8D8C8A" width="29" height="163.5"/>
					<path fill="#303E5C" d="M1067.9,1572.6l-56.6-169.3l41.8-14l56.6,169.3L1067.9,1572.6z M1030.3,1412.8l47.1,140.8l13.3-4.5
						l-47.1-140.8L1030.3,1412.8z"/>
				</g>
				<g>
					<path fill="#8D8C8A" d="M1146.1,1396.5c0,10.7-8.6,19.3-19.3,19.3H734.5c-10.7,0-19.3-8.6-19.3-19.3l0,0
						c0-10.7,8.6-19.3,19.3-19.3h392.4C1137.5,1377.2,1146.1,1385.9,1146.1,1396.5L1146.1,1396.5z"/>
					<path fill="#303E5C" d="M1126.9,1423.3H734.5c-14.8,0-26.8-12-26.8-26.8c0-14.8,12-26.8,26.8-26.8h392.4
						c14.8,0,26.8,12,26.8,26.8C1153.6,1411.3,1141.6,1423.3,1126.9,1423.3z M734.5,1384.7c-6.5,0-11.8,5.3-11.8,11.8
						c0,6.5,5.3,11.8,11.8,11.8h392.4c6.5,0,11.8-5.3,11.8-11.8c0-6.5-5.3-11.8-11.8-11.8H734.5z"/>
				</g>
			</g>
			<g>
				<rect x="878" y="1556.3" fill="#504B45" width="47.3" height="86.9"/>
				<path fill="#303E5C" d="M932.9,1650.7h-62.3v-101.9h62.3V1650.7z M885.5,1635.7h32.3v-71.9h-32.3V1635.7z"/>
			</g>
			<g>
				<g>
					<ellipse fill="#504B45" cx="1100.2" cy="1985.1" rx="231.4" ry="234"/>
					<path fill="#303E5C" d="M1100.2,2226.5c-63.8,0-123.8-25.1-168.9-70.8c-45.1-45.6-69.9-106.2-69.9-170.7s24.8-125.1,69.9-170.7
						c45.1-45.6,105.1-70.8,168.9-70.8s123.8,25.1,168.9,70.8c45.1,45.6,69.9,106.2,69.9,170.7s-24.8,125.1-69.9,170.7
						C1224,2201.4,1164,2226.5,1100.2,2226.5z M1100.2,1758.6c-59.8,0-116,23.5-158.3,66.3c-42.3,42.8-65.6,99.7-65.6,160.2
						c0,60.5,23.3,117.4,65.6,160.2c42.3,42.8,98.5,66.3,158.3,66.3s116-23.5,158.3-66.3c42.3-42.8,65.6-99.7,65.6-160.2
						c0-60.5-23.3-117.4-65.6-160.2C1216.2,1782.1,1160,1758.6,1100.2,1758.6z"/>
				</g>
				<g>
					<ellipse fill="#908180" cx="1100.2" cy="1985.1" rx="162" ry="163.8"/>
					<path fill="#303E5C" d="M1100.2,2156.3c-93.4,0-169.5-76.8-169.5-171.3c0-94.5,76-171.3,169.5-171.3s169.5,76.8,169.5,171.3
						C1269.7,2079.5,1193.6,2156.3,1100.2,2156.3z M1100.2,1828.8c-85.2,0-154.5,70.1-154.5,156.3c0,86.2,69.3,156.3,154.5,156.3
						s154.5-70.1,154.5-156.3C1254.7,1898.9,1185.4,1828.8,1100.2,1828.8z"/>
				</g>
				<g>
					<ellipse fill="#808B92" cx="1100.2" cy="1985.1" rx="113.4" ry="114.7"/>
					<path fill="#303E5C" d="M1100.2,2107.2c-66.7,0-120.9-54.8-120.9-122.2c0-67.4,54.2-122.2,120.9-122.2
						c66.7,0,120.9,54.8,120.9,122.2C1221.1,2052.4,1166.9,2107.2,1100.2,2107.2z M1100.2,1877.9c-58.4,0-105.9,48.1-105.9,107.2
						c0,59.1,47.5,107.2,105.9,107.2c58.4,0,105.9-48.1,105.9-107.2C1206.1,1926,1158.6,1877.9,1100.2,1877.9z"/>
				</g>
			</g>
			<g>
				<g>
					<ellipse fill="#504B45" cx="2141.4" cy="1985.1" rx="231.4" ry="234"/>
					<path fill="#303E5C" d="M2141.4,2226.5c-63.8,0-123.8-25.1-168.9-70.8c-45.1-45.6-69.9-106.2-69.9-170.7s24.8-125.1,69.9-170.7
						c45.1-45.6,105.1-70.8,168.9-70.8s123.8,25.1,168.9,70.8c45.1,45.6,69.9,106.2,69.9,170.7s-24.8,125.1-69.9,170.7
						C2265.2,2201.4,2205.2,2226.5,2141.4,2226.5z M2141.4,1758.6c-59.8,0-116,23.5-158.3,66.3c-42.3,42.8-65.6,99.7-65.6,160.2
						c0,60.5,23.3,117.4,65.6,160.2c42.3,42.8,98.5,66.3,158.3,66.3s116-23.5,158.3-66.3c42.3-42.8,65.6-99.7,65.6-160.2
						c0-60.5-23.3-117.4-65.6-160.2C2257.4,1782.1,2201.2,1758.6,2141.4,1758.6z"/>
				</g>
				<g>
					<ellipse fill="#908180" cx="2141.4" cy="1985.1" rx="162" ry="163.8"/>
					<path fill="#303E5C" d="M2141.4,2156.3c-93.4,0-169.5-76.8-169.5-171.3c0-94.5,76-171.3,169.5-171.3s169.5,76.8,169.5,171.3
						C2310.9,2079.5,2234.9,2156.3,2141.4,2156.3z M2141.4,1828.8c-85.2,0-154.5,70.1-154.5,156.3c0,86.2,69.3,156.3,154.5,156.3
						s154.5-70.1,154.5-156.3C2295.9,1898.9,2226.6,1828.8,2141.4,1828.8z"/>
				</g>
				<g>
					<ellipse fill="#808B92" cx="2141.4" cy="1985.1" rx="113.4" ry="114.7"/>
					<path fill="#303E5C" d="M2141.4,2107.2c-66.7,0-120.9-54.8-120.9-122.2c0-67.4,54.2-122.2,120.9-122.2s120.9,54.8,120.9,122.2
						C2262.3,2052.4,2208.1,2107.2,2141.4,2107.2z M2141.4,1877.9c-58.4,0-105.9,48.1-105.9,107.2c0,59.1,47.5,107.2,105.9,107.2
						s105.9-48.1,105.9-107.2C2247.3,1926,2199.8,1877.9,2141.4,1877.9z"/>
				</g>
			</g>
			<g>
				<path fill="#EE4037" d="M2148.4,1741.8c-34.5-93.2-101.5-271.3-128.6-321.7c-10.5-19.5-155.4-5.3-155.4-5.3l56.7,384.8
					c0,48.1-21.8,78.3-116.3,101h-255.8c-68.5-19.4-150.2-36.4-159.3-112.4c-12.7-105.8,47.7-244.7,47.7-244.7h-75.1h-164.9H941.8
					c-15,0-27.1,12-27.1,26.8v40.2c0,8.6,4.1,16.2,10.5,21.1c-41,44.5-143.7,105.3-124.4,336.6l-2.4,7c0,0,1023.6,0,1032.2,0
					c104.4,0,190.6-31.1,233.1-87.8h294.3C2358.1,1809.6,2265.3,1746,2148.4,1741.8z"/>
				<path fill="#303E5C" d="M1830.6,1982.8H787.9l5.3-15.4c-7.3-89.3,2.5-161.3,29.8-220.1c23.3-50.1,55.2-80.4,78.4-102.6
					c4.7-4.5,9.2-8.8,13.2-12.8c-4.8-6-7.5-13.4-7.5-21.3v-40.2c0-18.9,15.5-34.3,34.6-34.3h507.1l-4.6,10.5
					c-0.6,1.4-59.4,138.3-47.1,240.8c7.8,65.5,74.4,84,138.8,101.9c4.7,1.3,9.4,2.6,14,3.9H1804c44.2-10.7,72.6-23.1,89.3-38.9
					c14.2-13.5,20.3-29.7,20.4-54.1l-57.8-392.1l7.8-0.8c0.5,0,51.7-5,95.2-5c52.7,0,63.7,7.2,67.5,14.2
					c26.6,49.4,90.4,218.3,127.3,318c56.2,2.9,108.5,19.2,147.7,46.3c41.4,28.7,64.3,66.5,64.3,106.6v7.5h-298.2
					C2023.4,1950.8,1937.4,1982.8,1830.6,1982.8z M808.2,1967.8h1022.4c103.9,0,186.7-30.9,227.1-84.8l2.2-3h290.3
					c-2.7-32.3-22.9-62.8-57.5-86.8c-38-26.3-89.4-41.9-144.7-43.9l-5-0.2l-1.7-4.7c-36.4-98.5-101.5-270.9-128.1-320.6
					c-0.9-0.9-8.5-6.5-54.3-6.5c-32.7,0-70,2.9-85.9,4.2l55.6,377.5v0.5c0,28.8-7.7,49-25,65.5c-18.8,17.9-49.6,31.5-97,42.8
					l-0.9,0.2H1548l-1-0.3c-4.9-1.4-9.9-2.8-15-4.2c-65.9-18.3-140.7-39.1-149.7-114.6c-5.4-44.9,1.1-100.4,19.3-164.9
					c9.2-32.8,19.1-59.3,24.6-73.1H941.8c-10.8,0-19.6,8.7-19.6,19.3v40.2c0,6,2.8,11.5,7.6,15.2l6.5,5l-5.5,6
					c-5.5,5.9-12,12.2-18.9,18.8c-23.6,22.5-53.1,50.6-75.2,98.1c-26.4,56.7-35.6,126.7-28.3,214.1L808.2,1967.8z"/>
			</g>
			<g>
				<path fill="#504B45" d="M1471.4,1516.8c0,14.8-12,26.8-26.8,26.8h-390c-14.8,0-26.8-12-26.8-26.8v-40.2
					c0-14.8,12-26.8,26.8-26.8h390c14.8,0,26.8,12,26.8,26.8V1516.8z"/>
				<path fill="#303E5C" d="M1444.6,1551.1h-390c-18.9,0-34.3-15.4-34.3-34.3v-40.2c0-18.9,15.4-34.3,34.3-34.3h390
					c18.9,0,34.3,15.4,34.3,34.3v40.2C1478.9,1535.7,1463.5,1551.1,1444.6,1551.1z M1054.6,1457.3c-10.6,0-19.3,8.7-19.3,19.3v40.2
					c0,10.6,8.7,19.3,19.3,19.3h390c10.6,0,19.3-8.7,19.3-19.3v-40.2c0-10.6-8.7-19.3-19.3-19.3H1054.6z"/>
			</g>
			<g>
				<path fill="#303E5C" d="M1381.9,1976.2c-12.3-102.4-48.7-178.5-108.3-226.1c-58-46.4-126.3-56.1-173.4-56.1v-15
					c49.5,0,121.4,10.3,182.8,59.4c62.7,50.1,101,129.5,113.8,236L1381.9,1976.2z"/>
			</g>
			<g>
				<path fill="#EE4037" d="M1793,1289.7c0,40.1,22.8,75.5,67.9,97.1l3.6,28l105.7-5v-1v-237.4v-0.7
					C1872.3,1170.6,1793,1224,1793,1289.7z"/>
				<path fill="#303E5C" d="M1857.9,1422.6l-3.9-30.9c-21.5-10.9-38.4-25.1-50.1-42.3c-12.2-17.8-18.3-37.9-18.3-59.7
					c0-34.4,19.6-66.5,55.2-90.4c34.7-23.3,80.7-36.2,129.4-36.2h7.5V1417L1857.9,1422.6z M1962.6,1178.3
					c-90.1,2.6-162.1,51.6-162.1,111.5c0,38.6,22.6,70.7,63.6,90.3l3.7,1.8l3.2,25.2l91.6-4.3V1178.3z"/>
			</g>
			<g>
				<path fill="#FFB825" d="M1970.1,1196v182.4c40.3,0,72.9-40.8,72.9-91.2C2043.1,1236.8,2010.4,1196,1970.1,1196z"/>
				<path fill="#303E5C" d="M1970.1,1385.8c-4.1,0-7.5-3.4-7.5-7.5V1196c0-4.1,3.4-7.5,7.5-7.5c44.4,0,80.4,44.3,80.4,98.7
					C2050.6,1341.5,2014.5,1385.8,1970.1,1385.8z M1977.6,1204v166.3c32.6-4.8,57.9-40.2,57.9-83.1
					C2035.6,1244.2,2010.2,1208.8,1977.6,1204z"/>
			</g>
			<g>
				<path fill="#FFB825" d="M878,1636v-72.5c-16,0-29,16.2-29,36.2S862,1636,878,1636z"/>
				<path fill="#303E5C" d="M878,1643.5c-20.1,0-36.5-19.6-36.5-43.7c0-24.1,16.4-43.7,36.5-43.7c4.1,0,7.5,3.4,7.5,7.5v72.5
					C885.5,1640.2,882.2,1643.5,878,1643.5z M870.5,1572.8c-8.2,4.1-14,14.6-14,26.9c0,12.3,5.8,22.9,14,26.9V1572.8z"/>
			</g>
			<g>
				<polygon fill="#FFB825" points="2087.6,1746.4 2143.8,1729.5 2104.4,1626.7 2047.4,1640.2 				"/>
				<path fill="#303E5C" d="M2087.6,1753.9c-3,0-5.9-1.9-7-4.8l-40.2-106.2c-0.8-2-0.6-4.3,0.4-6.2c1-1.9,2.8-3.3,4.9-3.8l57.1-13.4
					c3.7-0.9,7.4,1.1,8.7,4.6l39.4,102.8c0.7,1.9,0.6,4.1-0.3,6s-2.6,3.3-4.6,3.9l-56.2,16.9
					C2089,1753.8,2088.3,1753.9,2087.6,1753.9z M2057.4,1645.5l34.7,91.7l41.8-12.5l-34.1-89.1L2057.4,1645.5z"/>
			</g>
			<g>
				<circle fill="#504B45" cx="1852.7" cy="1303.8" r="28.5"/>
				<path fill="#303E5C" d="M1852.7,1339.8c-19.9,0-36-16.2-36-36c0-19.9,16.2-36,36-36c19.9,0,36,16.2,36,36
					C1888.8,1323.6,1872.6,1339.8,1852.7,1339.8z M1852.7,1282.8c-11.6,0-21,9.4-21,21c0,11.6,9.4,21,21,21c11.6,0,21-9.4,21-21
					C1873.8,1292.2,1864.3,1282.8,1852.7,1282.8z"/>
			</g>
			<g>
				<path fill="#BA312D" d="M1241.8,1786.2c0,6.5-5.3,11.8-11.8,11.8H970.5c-6.5,0-11.8-5.3-11.8-11.8l0,0c0-6.5,5.3-11.8,11.8-11.8
					h259.4C1236.5,1774.4,1241.8,1779.7,1241.8,1786.2L1241.8,1786.2z"/>
				<path fill="#303E5C" d="M1229.9,1805.6H970.5c-10.7,0-19.3-8.7-19.3-19.3s8.7-19.3,19.3-19.3h259.4c10.7,0,19.3,8.7,19.3,19.3
					S1240.6,1805.6,1229.9,1805.6z M970.5,1781.9c-2.4,0-4.3,2-4.3,4.3s2,4.3,4.3,4.3h259.4c2.4,0,4.3-2,4.3-4.3s-2-4.3-4.3-4.3
					H970.5z"/>
			</g>
			<g>
				<path fill="#BA312D" d="M1241.8,1835.3c0,6.5-5.3,11.8-11.8,11.8H970.5c-6.5,0-11.8-5.3-11.8-11.8l0,0c0-6.5,5.3-11.8,11.8-11.8
					h259.4C1236.5,1823.5,1241.8,1828.8,1241.8,1835.3L1241.8,1835.3z"/>
				<path fill="#303E5C" d="M1229.9,1854.7H970.5c-10.7,0-19.3-8.7-19.3-19.3s8.7-19.3,19.3-19.3h259.4c10.7,0,19.3,8.7,19.3,19.3
					S1240.6,1854.7,1229.9,1854.7z M970.5,1831c-2.4,0-4.3,2-4.3,4.3s2,4.3,4.3,4.3h259.4c2.4,0,4.3-2,4.3-4.3s-2-4.3-4.3-4.3H970.5
					z"/>
			</g>
			<g>
				<path fill="#BA312D" d="M1241.8,1884.8c0,6.5-5.3,11.8-11.8,11.8H970.5c-6.5,0-11.8-5.3-11.8-11.8l0,0c0-6.5,5.3-11.8,11.8-11.8
					h259.4C1236.5,1873,1241.8,1878.3,1241.8,1884.8L1241.8,1884.8z"/>
				<path fill="#303E5C" d="M1229.9,1904.2H970.5c-10.7,0-19.3-8.7-19.3-19.3s8.7-19.3,19.3-19.3h259.4c10.7,0,19.3,8.7,19.3,19.3
					S1240.6,1904.2,1229.9,1904.2z M970.5,1880.5c-2.4,0-4.3,2-4.3,4.3s2,4.3,4.3,4.3h259.4c2.4,0,4.3-2,4.3-4.3s-2-4.3-4.3-4.3
					H970.5z"/>
			</g>
			<g>
				<path fill="#303E5C" d="M1100.2,1587H976c-4.1,0-7.5-3.4-7.5-7.5s3.4-7.5,7.5-7.5h124.2c4.1,0,7.5,3.4,7.5,7.5
					S1104.3,1587,1100.2,1587z"/>
			</g>
			<g>
				<path fill="#303E5C" d="M1200.1,1587h-62.1c-4.1,0-7.5-3.4-7.5-7.5s3.4-7.5,7.5-7.5h62.1c4.1,0,7.5,3.4,7.5,7.5
					S1204.2,1587,1200.1,1587z"/>
			</g>
			<g>
				<path fill="#303E5C" d="M1249.6,1587h-22.1c-4.1,0-7.5-3.4-7.5-7.5s3.4-7.5,7.5-7.5h22.1c4.1,0,7.5,3.4,7.5,7.5
					S1253.7,1587,1249.6,1587z"/>
			</g>
			<g>
				<path fill="#303E5C" d="M2261.1,1870.2H2199c-4.1,0-7.5-3.4-7.5-7.5s3.4-7.5,7.5-7.5h62.1c4.1,0,7.5,3.4,7.5,7.5
					S2265.2,1870.2,2261.1,1870.2z"/>
			</g>
			<g>
				<path fill="#303E5C" d="M2310.6,1870.2h-22.1c-4.1,0-7.5-3.4-7.5-7.5s3.4-7.5,7.5-7.5h22.1c4.1,0,7.5,3.4,7.5,7.5
					S2314.8,1870.2,2310.6,1870.2z"/>
			</g>
			<g>
				<path fill="#303E5C" d="M828.5,1404h-62.1c-4.1,0-7.5-3.4-7.5-7.5s3.4-7.5,7.5-7.5h62.1c4.1,0,7.5,3.4,7.5,7.5
					S832.6,1404,828.5,1404z"/>
			</g>
			<g>
				<path fill="#303E5C" d="M878,1404h-22.1c-4.1,0-7.5-3.4-7.5-7.5s3.4-7.5,7.5-7.5H878c4.1,0,7.5,3.4,7.5,7.5S882.2,1404,878,1404
					z"/>
			</g>
			<g>
				<path fill="#303E5C" d="M1939.4,1323c-4.1,0-7.5-3.4-7.5-7.5v-62.1c0-4.1,3.4-7.5,7.5-7.5s7.5,3.4,7.5,7.5v62.1
					C1946.9,1319.7,1943.6,1323,1939.4,1323z"/>
			</g>
			<g>
				<path fill="#303E5C" d="M1939.4,1233.5c-4.1,0-7.5-3.4-7.5-7.5v-22.1c0-4.1,3.4-7.5,7.5-7.5s7.5,3.4,7.5,7.5v22.1
					C1946.9,1230.1,1943.6,1233.5,1939.4,1233.5z"/>
			</g>
			<g>
				<path fill="#303E5C" d="M1617.7,1944.8h-124.2c-4.1,0-7.5-3.4-7.5-7.5s3.4-7.5,7.5-7.5h124.2c4.1,0,7.5,3.4,7.5,7.5
					S1621.8,1944.8,1617.7,1944.8z"/>
			</g>
			<g>
				<path fill="#303E5C" d="M1717.5,1944.8h-62.1c-4.1,0-7.5-3.4-7.5-7.5s3.4-7.5,7.5-7.5h62.1c4.1,0,7.5,3.4,7.5,7.5
					S1721.7,1944.8,1717.5,1944.8z"/>
			</g>
			<g>
				<path fill="#303E5C" d="M1767.1,1944.8h-22.1c-4.1,0-7.5-3.4-7.5-7.5s3.4-7.5,7.5-7.5h22.1c4.1,0,7.5,3.4,7.5,7.5
					S1771.2,1944.8,1767.1,1944.8z"/>
			</g>
			<g>
				<path fill="#303E5C" d="M1916.2,1574.6c-3.5,0-6.7-2.5-7.4-6.1l-22.6-122.1c-0.8-4.1,1.9-8,6-8.7c4.1-0.8,8,1.9,8.7,6
					l22.6,122.1c0.8,4.1-1.9,8-6,8.7C1917.1,1574.6,1916.7,1574.6,1916.2,1574.6z"/>
			</g>
			<g>
				<path fill="#303E5C" d="M1934.4,1672.8c-3.5,0-6.7-2.5-7.4-6.1l-11.3-61.1c-0.8-4.1,1.9-8,6-8.7c4.1-0.8,8,1.9,8.7,6l11.3,61.1
					c0.8,4.1-1.9,8-6,8.7C1935.3,1672.8,1934.9,1672.8,1934.4,1672.8z"/>
			</g>
			<g>
				<path fill="#303E5C" d="M1943.4,1721.5c-3.5,0-6.7-2.5-7.4-6.1l-4-21.8c-0.8-4.1,1.9-8,6-8.7c4.1-0.8,8,1.9,8.7,6l4,21.8
					c0.8,4.1-1.9,8-6,8.7C1944.4,1721.5,1943.9,1721.5,1943.4,1721.5z"/>
			</g>
			<g>
				<g>
					<rect x="755.5" y="1061.3" fill="#EE9A6B" width="351" height="314.3"/>
					<path fill="#303E5C" d="M1106.5,1383.1h-351c-4.1,0-7.5-3.4-7.5-7.5v-314.3c0-4.1,3.4-7.5,7.5-7.5h351c4.1,0,7.5,3.4,7.5,7.5
						v314.3C1114,1379.8,1110.6,1383.1,1106.5,1383.1z M763,1368.1h336v-299.3H763V1368.1z"/>
				</g>
				<g>
					<rect x="783.2" y="1061.3" fill="#908180" width="28.5" height="313.1"/>
					<path fill="#303E5C" d="M819.2,1381.9h-43.5v-328.1h43.5V1381.9z M790.7,1366.9h13.5v-298.1h-13.5V1366.9z"/>
				</g>
				<g>
					<rect x="1052.5" y="1061.3" fill="#908180" width="28.5" height="313.1"/>
					<path fill="#303E5C" d="M1088.5,1381.9H1045v-328.1h43.5V1381.9z M1060,1366.9h13.5v-298.1H1060V1366.9z"/>
				</g>
				<g>
					<rect x="850" y="1179.2" fill="#FCD1BB" width="158" height="77.3"/>
					<path fill="#303E5C" d="M1008,1264H850c-4.1,0-7.5-3.4-7.5-7.5v-77.3c0-4.1,3.4-7.5,7.5-7.5h158c4.1,0,7.5,3.4,7.5,7.5v77.3
						C1015.5,1260.7,1012.2,1264,1008,1264z M857.5,1249h143v-62.3h-143V1249z"/>
				</g>
			</g>
		</g>
		<g>
			<g>
				<path fill="#908180" d="M1667.4,1844.7v-11h-48v39.4c0,10.3,5.4,18.6,12,18.6h141c10.3,0,21.5-8.7,17.5-13.9
					C1770.6,1852.5,1667.4,1844.7,1667.4,1844.7z"/>
				<path fill="#303E5C" d="M1772.4,1899.2h-141c-10.9,0-19.5-11.5-19.5-26.1v-46.9h63v11.6c9.6,0.9,28,3,47.8,6.5
					c39.9,7.2,63.8,16.6,73.1,28.8c2.8,3.6,3.1,8.3,1,12.7C1793.1,1893.3,1782.4,1899.2,1772.4,1899.2z M1626.9,1841.2v31.9
					c0,7.1,3.4,11.1,4.5,11.1h141c4,0,8-2.1,9.9-3.7c-15.9-15.3-78.3-25.4-115.4-28.2l-6.9-0.5l0-10.5H1626.9z"/>
			</g>
			<g>
				<path fill="#2A8F9E" d="M1661.7,1401.1c-15.8-51.8-239.6-75.6-239.6-75.6H1317h-77.4c-0.7,5.3-1.1,10.8-1.1,16.4
					c0,54.1,34,98.9,78.4,106.7v1.2l236.9,8.6l52,383.7h76.5C1682.4,1842.2,1690.4,1495,1661.7,1401.1z"/>
				<path fill="#303E5C" d="M1682.4,1849.7H1606c-3.8,0-6.9-2.8-7.4-6.5l-51.2-377.5l-230.6-8.4c-1.9-0.1-3.7-0.9-4.9-2.1
					c-22-4.9-42-18.3-56.7-38.1c-15.5-20.9-24-47.6-24-75.2c0-5.8,0.4-11.6,1.1-17.3c0.5-3.7,3.7-6.5,7.4-6.5h182.5
					c0.3,0,0.5,0,0.8,0c0.6,0.1,57,6.1,114.6,18.5c80.9,17.4,123.8,37.8,131.3,62.4c28.7,94,21.4,429.2,21.1,443.4
					C1689.9,1846.4,1686.5,1849.7,1682.4,1849.7z M1612.5,1834.7h62.6c0.9-50.6,5.2-347.2-20.6-431.4
					c-7.8-25.4-86.6-44.9-120.1-52.1c-54.4-11.7-107.6-17.7-112.7-18.2h-175.3c-0.2,2.9-0.3,5.9-0.3,8.9c0,24.4,7.5,47.9,21.1,66.2
					c13.3,17.9,31.4,29.6,51.1,33.1c1.1,0.2,2.1,0.6,3,1.3l232.9,8.5c3.6,0.1,6.7,2.9,7.2,6.5L1612.5,1834.7z"/>
			</g>
			<g>
				<g>
					<path fill="#FAD1CA" d="M1533.6,746.7c0,72.9-59.7,132-133.4,132s-133.4-59.1-133.4-132c0-72.9,59.7-132,133.4-132
						S1533.6,673.8,1533.6,746.7z"/>
					<path fill="#303E5C" d="M1400.2,886.2c-77.7,0-140.9-62.6-140.9-139.5c0-76.9,63.2-139.5,140.9-139.5
						c77.7,0,140.9,62.6,140.9,139.5C1541.1,823.6,1477.9,886.2,1400.2,886.2z M1400.2,622.2c-69.4,0-125.9,55.9-125.9,124.5
						c0,68.7,56.5,124.5,125.9,124.5s125.9-55.9,125.9-124.5C1526.1,678,1469.6,622.2,1400.2,622.2z"/>
				</g>
				<g>
					<g>
						<path fill="#303E5C" d="M1493.3,768.6c0.2-0.4,0.3-0.8,0.3-1.2c0-2.3-0.9-4.4-2.5-5.8c-4.5-4.1-13.7-3.2-21.8-2.4
							c-2.6,0.2-6,0.6-7.2,0.4c-1-0.8-2.5-0.8-3.6,0.1c-1.3,1-1.5,2.9-0.5,4.2c1.8,2.3,5.2,1.9,11.9,1.3c1.3-0.1,2.9-0.3,4.5-0.4
							c-1,1.9-1.7,4.2-1.7,6.7c0,6.8,4.7,12.4,10.4,12.4c5.8,0,10.4-5.6,10.4-12.4C1493.5,770.4,1493.4,769.5,1493.3,768.6z"/>
					</g>
					<g>
						<path fill="#FFF1F1" d="M1488.8,772.6c0,2.5-1.3,4.5-2.8,4.5c-1.6,0-2.9-2-2.9-4.5c0-2.5,1.3-4.5,2.9-4.5
							C1487.5,768.1,1488.8,770.1,1488.8,772.6z"/>
					</g>
				</g>
				<path fill="#F39DA3" d="M1457.7,799.1c0,8.5-6.9,15.4-15.4,15.4c-8.5,0-15.4-6.9-15.4-15.4c0-8.5,6.9-15.4,15.4-15.4
					C1450.8,783.7,1457.7,790.6,1457.7,799.1z"/>
				<g>
					<polygon fill="#FAD1CA" points="1398.9,911.7 1329.8,904.9 1329.3,861 1403.9,878.7 					"/>
					<path fill="#303E5C" d="M1398.9,919.2c-0.2,0-0.5,0-0.7,0l-69.1-6.8c-3.8-0.4-6.7-3.5-6.8-7.4l-0.5-43.9c0-2.3,1-4.5,2.8-6
						c1.8-1.4,4.2-2,6.4-1.4l74.6,17.8c3.8,0.9,6.3,4.6,5.7,8.4l-5,33C1405.7,916.5,1402.6,919.2,1398.9,919.2z M1337.2,898.1
						l55.3,5.5l2.9-19.1l-58.5-13.9L1337.2,898.1z"/>
				</g>
				<g>
					<path fill="#2A8F9E" d="M1418.6,712.5c15.6-14.8,83.7,41.1,121.8,40.7c9.6-0.1,17.3-17.1,21.7-24c22.4-34.6-53.7-126-161.9-126
						c-73.7,0-133.4,70.6-133.4,143.5c0,72.9,41.3,174.6,147.2,93.1C1430.1,827.4,1352.7,775,1418.6,712.5z"/>
					<path fill="#303E5C" d="M1343.5,877.4C1343.5,877.4,1343.5,877.4,1343.5,877.4c-27.5,0-50.1-15.7-65.4-45.5
						c-12-23.3-18.9-54.3-18.9-85.2c0-37.3,15-75.2,41-104.1c27.3-30.2,62.8-46.9,99.9-46.9c76.3,0,140.4,44.3,164.3,88.1
						c10.6,19.5,12,37,4,49.4c-0.7,1.1-1.6,2.7-2.6,4.3c-5.6,9.7-13.3,23-25.4,23.1l-0.5,0c-20.2,0-45.4-12.9-69.9-25.3
						c-17.3-8.8-35.1-17.9-44-17.9c-1.5,0-2.2,0.3-2.3,0.4c-40.3,38.3-22.2,70.8-8.9,94.6c3.4,6,6.3,11.2,7.8,15.9
						c3,9.4-0.5,14.6-4.1,17.3C1391.2,866.8,1365.9,877.4,1343.5,877.4z M1400.2,610.7c-32.9,0-64.4,14.9-88.8,41.9
						c-23.6,26.2-37.2,60.4-37.2,94.1c0,28.6,6.3,57.1,17.2,78.4c12.8,24.8,30.3,37.4,52.1,37.4c0,0,0,0,0,0
						c18.9,0,40.8-9.4,65.1-28.1c-0.4-2.8-4.2-9.5-7-14.5c-6.7-12.1-16-28.7-17.4-48c-1.7-23,8.1-44.8,29.2-64.8
						c3.2-3,7.4-4.6,12.7-4.6c12.5,0,30.3,9,50.8,19.5c21.8,11.1,46.5,23.7,63.1,23.7l0.3,0c3.5,0,10.3-11.8,12.6-15.6
						c1-1.8,2-3.5,3-4.9c4.8-7.5,3.2-19.9-4.6-34.1c-10.7-19.6-30.9-39.2-55.4-53.8C1475.5,625.1,1442.4,610.7,1400.2,610.7z"/>
				</g>
				<g>
					<polygon fill="#504B45" points="1393.4,853.5 1411.4,841.7 1442.3,872 1424,877.5 					"/>
					<path fill="#303E5C" d="M1424,885c-1.7,0-3.3-0.6-4.6-1.6l-30.6-24c-1.9-1.5-3-3.8-2.9-6.2c0.1-2.4,1.4-4.6,3.4-6l18-11.8
						c2.9-1.9,6.8-1.6,9.4,0.9l30.9,30.3c1.9,1.9,2.7,4.6,2,7.2c-0.6,2.6-2.6,4.6-5.1,5.4l-18.4,5.5
						C1425.4,884.9,1424.7,885,1424,885z M1406.2,854.1l19.3,15.1l2.5-0.7l-17.5-17.2L1406.2,854.1z"/>
				</g>
				<path fill="#303E5C" d="M1480.7,840.2c4.2,1.4,9.4,2.4,15,3l4.3-5.6c-15.2-1-26.6-5.2-26.6-10.4c0-1.6-1.3-3-3-3
					c-1.6,0-3,1.3-3,3C1467.3,831.1,1469.6,836.5,1480.7,840.2z"/>
			</g>
			<g>
				<g>
					<g>
						<path fill="#EE4037" d="M1467.3,1331.5l-253.5-11.2c0,0,47.6-374.5,91.7-408.4c15.6-12,95.2,2.6,107.6,12.8
							c12.3,10.1,34.2,38.5,34.4,61.1C1448.7,1069.9,1467.3,1331.5,1467.3,1331.5z"/>
						<path fill="#303E5C" d="M1475.4,1339.3l-270-12l1-8.1c0.1-0.9,12.1-94.9,29.4-191.8c10.1-57,20.1-103.9,29.6-139.4
							c7.9-29.6,20.2-70.3,35.6-82.1c5.3-4.1,14.5-6.1,28.3-6.1c28.1,0,77.1,9.4,88.7,19.1c12.8,10.6,36.8,41,37.2,66.8
							c1,82.9,19.5,342.6,19.7,345.2L1475.4,1339.3z M1222.4,1313.1l236.9,10.5c-3.2-45.5-18.2-262.9-19.1-337.7
							c-0.1-8.5-4.2-19.6-11.6-31.3c-7.2-11.5-15.4-20.1-20.1-24.1c-6.8-5.6-49.3-15.6-79.2-15.6c-14.5,0-18.5,2.5-19.1,2.9
							c-4.9,3.8-15.3,18.4-30.2,74.1c-9.4,35.1-19.2,81.6-29.3,138.2C1236.3,1210.2,1225.7,1288.3,1222.4,1313.1z"/>
					</g>
					<g>
						<polygon fill="#FFB825" points="1466.4,1330.2 1208.4,1351.2 1214.8,1313.4 1465.3,1313.4 						"/>
						<path fill="#303E5C" d="M1208.4,1358.7c-2.1,0-4.1-0.9-5.5-2.4c-1.6-1.7-2.3-4-1.9-6.3l6.4-37.7c0.6-3.6,3.7-6.2,7.4-6.2
							h250.6c4,0,7.2,3.1,7.5,7l1.1,16.8c0.3,4.1-2.8,7.6-6.9,8l-258,21C1208.8,1358.7,1208.6,1358.7,1208.4,1358.7z M1221.1,1320.9
							l-3.7,22l241.1-19.6l-0.2-2.4H1221.1z"/>
					</g>
				</g>
				<g>
					<g>
						<path fill="#FAD1CA" d="M1890.8,1264.5c-4.7-6.4-32.3-22.6-73.3-46.4l-23.4,36.6c26.7,12.7,43.2,19.4,43.2,19.4
							s13,1.3,34,12.2c21,10.9-2.8,42.2,25.9,38.9C1926.9,1321.8,1900.6,1277.9,1890.8,1264.5z"/>
						<path fill="#303E5C" d="M1893.4,1333C1893.4,1333,1893.4,1333,1893.4,1333c-19,0-19.3-15.5-19.5-23.9
							c-0.2-9.2-0.8-13.4-6-16.1c-19.2-10-31.2-11.4-31.3-11.4c-0.7-0.1-1.4-0.2-2-0.5c-0.7-0.3-17-6.9-43.6-19.6
							c-1.9-0.9-3.4-2.6-4-4.7c-0.6-2.1-0.3-4.3,0.9-6.1l23.4-36.6c2.2-3.4,6.6-4.5,10.1-2.5c50.7,29.4,70.3,41.2,75.6,48.4
							c2.9,4,28.6,40,19.6,60.4c-2.1,4.8-7,10.9-18.4,12.2C1896.5,1332.9,1894.9,1333,1893.4,1333z M1839.3,1266.8
							c3.9,0.6,16.9,3.2,35.5,12.9c13.6,7,13.9,20.3,14.1,29.1c0.2,9.2,0.3,9.2,4.5,9.2h0c0.9,0,1.9-0.1,3-0.2
							c5.2-0.6,6-2.6,6.4-3.3c2.8-6.3-3.8-26.1-18-45.5c-3.7-5-35-23.4-64.8-40.7l-14.9,23.3
							C1823.7,1260.3,1836.1,1265.4,1839.3,1266.8z"/>
					</g>
					<g>
						<g>
							<path fill="#EE4037" d="M1475.4,986.5c-49.3-36.4-101.7-49.1-117-28.4c-15.3,20.7,12.2,67.1,61.5,103.5l365.5,213.6
								l33.4-56.4L1475.4,986.5z"/>
							<path fill="#303E5C" d="M1788.1,1285.5l-372.6-217.8c-24.6-18.2-44.9-39.4-57-59.8c-13.3-22.3-15.4-41.5-6.1-54.2
								c4.4-5.9,13.4-13,31.4-13c26.4,0,62.3,14.8,96,39.7l349.2,236.2L1788.1,1285.5z M1424.1,1055.4l358.7,209.7l26-43.9
								l-337.7-228.5l-0.1-0.1c-30.8-22.7-64.2-36.9-87.2-36.9c-6.5,0-15.1,1.2-19.3,6.9C1353.4,977.5,1375.2,1019.2,1424.1,1055.4z
								"/>
						</g>
						<g>
							<polygon fill="#FFB825" points="1419.9,1061.7 1475.4,986.5 1503.9,1005.8 1452,1080.4 							"/>
							<path fill="#303E5C" d="M1452,1087.9c-1.3,0-2.6-0.3-3.8-1l-32.1-18.8c-1.8-1.1-3.1-2.9-3.6-5c-0.4-2.1,0-4.3,1.3-6
								l55.5-75.1c2.4-3.2,6.9-4,10.2-1.8l28.5,19.3c1.7,1.1,2.8,2.9,3.2,4.8c0.4,2-0.1,4-1.2,5.7l-51.8,74.6
								C1456.7,1086.8,1454.4,1087.9,1452,1087.9z M1430.9,1059.4l18.9,11l43.6-62.7l-16.2-11L1430.9,1059.4z"/>
						</g>
						<g>
							<polygon fill="#FFB825" points="1758,1260.2 1793,1203.8 1818.9,1218.9 1784.8,1272.6 							"/>
							<path fill="#303E5C" d="M1784.8,1280.1c-1.1,0-2.1-0.2-3.1-0.7l-26.8-12.3c-2-0.9-3.4-2.6-4-4.7c-0.6-2.1-0.3-4.3,0.8-6.1
								l34.9-56.4c2.1-3.5,6.6-4.6,10.1-2.5l25.9,15c1.8,1,3,2.7,3.5,4.7c0.5,2,0.1,4.1-1,5.8l-34,53.7
								C1789.7,1278.8,1787.3,1280.1,1784.8,1280.1z M1768.9,1257l13.1,6l26.4-41.5l-12.8-7.5L1768.9,1257z"/>
						</g>
					</g>
				</g>
			</g>
		</g>
	</g>
</g>
</svg>
