<?xml version="1.0" encoding="utf-8"?>
<!-- Generator: Adobe Illustrator 15.1.0, SVG Export Plug-In . SVG Version: 6.00 Build 0)  -->
<!DOCTYPE svg PUBLIC "-//W3C//DTD SVG 1.1//EN" "http://www.w3.org/Graphics/SVG/1.1/DTD/svg11.dtd">
<svg version="1.1" id="Layer_1" xmlns="http://www.w3.org/2000/svg" xmlns:xlink="http://www.w3.org/1999/xlink" x="0px" y="0px"
	 width="1400px" height="980px" viewBox="0 0 1400 980" enable-background="new 0 0 1400 980" xml:space="preserve">
<polygon fill="#F0A16C" points="1271.3,980 1271.3,559.4 1298.6,559.4 1298.6,527.3 101.4,527.3 101.4,559.4 128.7,559.4 128.7,980 
	171.3,980 171.3,559.4 251,559.4 251,980 293.5,980 293.5,559.4 373.2,559.4 373.2,980 415.7,980 415.7,559.4 495.4,559.4 
	495.4,980 537.9,980 537.9,559.4 617.6,559.4 617.6,980 660.1,980 660.1,559.4 739.9,559.4 739.9,980 782.4,980 782.4,559.4 
	862.1,559.4 862.1,980 904.6,980 904.6,559.4 984.3,559.4 984.3,980 1026.8,980 1026.8,559.4 1106.5,559.4 1106.5,980 1149,980 
	1149,559.4 1228.7,559.4 1228.7,980 "/>
<path fill="#99FFFF" d="M871.2,890.4C857.3,822.8,826.9,712.8,776,658.4c-42.8-33.9-109-33.9-151.9,0
	C573.2,712.8,542.8,822.8,528.8,890.4C524,913.8,529.2,933.7,541.4,950c-0.4,2.7-0.7,5.5-0.7,8.4c0,7.399,0.399,14.6,1.2,21.6h316.5
	c0.699-6.9,1-14.1,1-21.6c0-2.9-0.301-5.601-0.7-8.4C870.8,933.7,876,913.8,871.2,890.4z"/>
<path fill="#99FFFF" d="M519.3,840.9C571.6,816.3,623.6,788,646.2,732.6C677.6,655.8,588.5,639,552.1,686.2
	C535.6,707.6,445.2,800.2,421,756.9C400.6,720.3,339.1,720.1,357.4,767.8C393.2,861.4,463.1,867.3,519.3,840.9z"/>
<path fill="#99FFFF" d="M880.7,840.9c56.1,26.399,126.1,20.5,162-73.101c18.3-47.7-43.2-47.5-63.601-10.899
	C954.9,800.2,864.5,707.6,848,686.2c-36.4-47.2-125.5-30.4-94.1,46.399C776.5,788,828.5,816.3,880.7,840.9z"/>
<path fill="#FCD1C0" d="M888.6,501.9c0-13.9-11.199-25.101-25.1-25.101c-1.4,0-2.7,0.101-4.1,0.3
	c-16.2-79.3-62.601-151.5-159.5-151.5c-96.9,0-143.2,72.2-159.5,151.5c-1.301-0.199-2.7-0.3-4.101-0.3
	c-13.899,0-25.1,11.2-25.1,25.101c0,13.1,10,23.8,22.8,25c-0.4,7.399-0.6,14.8-0.6,22c0,101.1,74.6,143,166.5,143
	c92,0,166.5-41.801,166.5-143c0-7.301-0.2-14.601-0.7-22C878.6,525.7,888.6,515,888.6,501.9z"/>
<path fill="#AB897B" d="M697.9,329.2c1.199-0.4,6.6-3.5,6.5-3.5c7.3,0.3-3.9-9.9-13.9-12.9c-21.6-6.5-39.8,0.1-39.8,25.1
	c0,60.8,101.899,54.2,42.5,22C685.6,355.8,677.4,336.3,697.9,329.2z"/>
<path fill="#FFE7DE" d="M612.6,552.8c0-5.6-9.399-10.2-20.899-10.2c-11.601,0-20.9,4.5-20.9,10.2c0,5.601,9.4,10.2,20.9,10.2
	S612.6,558.4,612.6,552.8z"/>
<path fill="#FFE7DE" d="M841,552.8c0-5.6-9.4-10.2-20.9-10.2c-11.6,0-20.899,4.5-20.899,10.2c0,5.601,9.399,10.2,20.899,10.2
	S841,558.4,841,552.8z"/>
<path fill="#AB897B" d="M700,647.2c49,0,88.8,16.2,88.8-28.101c0-44.3-39.8-65.199-88.8-65.199S611.2,574.8,611.2,619.1
	C611.2,663.5,651,647.2,700,647.2z"/>
<path fill="#FFFFFF" d="M712.6,569c5.9,0,12.2-6,16.4-12.3c-9.1-1.8-18.9-2.7-29.1-2.7c-10.2,0-20,0.9-29.101,2.7
	c4.2,6.3,10.5,12.3,16.4,12.3C695.8,569,704.2,569,712.6,569z"/>
<path fill="#875843" d="M760.9,650c-8.7-22.4-32.7-38.4-60.9-38.4S647.9,627.7,639.1,650c15.9,1,37.301-2.7,60.9-2.7
	C723.6,647.2,745,651,760.9,650z"/>
<path fill="#AB897B" d="M615.6,502.2c6.7-2.2,13.301-3.7,19.9-4.3c6.5-0.601,13.1-0.5,19.7,0.5c25.3,7.1-2.4-17.4-14.5-23
	c-26.101-12-34.101,0.1-9.8,10C611.3,487.9,600.7,510.8,615.6,502.2z"/>
<path fill="#AB897B" d="M759.4,475.3c-12.2,5.601-39.9,30.101-14.5,23c6.6-1,13.199-1.1,19.699-0.5c6.601,0.601,13.2,2.101,19.9,4.3
	c14.9,8.601,4.3-14.3-15.2-16.899C793.5,475.4,785.4,463.3,759.4,475.3z"/>
<path fill="#AB897B" d="M615.9,448.8c5.6-4.2,9.699-6.7,11-7.399c48.199-26.101-13.301-11-23.101,2.5
	C596.4,454.1,610.3,453,615.9,448.8z"/>
<path fill="#AB897B" d="M784.1,448.8c5.601,4.2,19.5,5.2,12.101-4.899c-9.8-13.5-71.3-28.601-23.101-2.5
	C774.5,442.1,778.5,444.6,784.1,448.8z"/>
<g>
	<g>
		<path fill="#99FFFF" d="M508.4,420.7c11.899-2.4,23,10.6,22.8,5.5l-0.101-0.5c-7.1-8.3-19.199-13.4-30.199-10.5
			c-9,2.3-2.101,15.8,9.5,20.6c13,5.4,5.1-3.7-1-6.2C508.5,429.2,501.4,422.1,508.4,420.7z"/>
		<path fill="#99FFFF" d="M533,389.9c0.1,0.1,0.2,0.3,0.2,0.4C533.2,390.2,533.1,390.1,533,389.9z"/>
		<path fill="#99FFFF" d="M533,389.9c-4.6-8-16.6-15.7-25.4-13.9c-3.899,0.8,0.5,5.8,7.7,6.5C518.7,382.9,531,387.1,533,389.9z"/>
	</g>
	<g>
		<path fill="#99FFFF" d="M890.5,429.6c-6.2,2.5-14,11.601-1,6.2c11.6-4.8,18.5-18.3,9.5-20.6c-11.1-2.8-23.1,2.3-30.2,10.5
			l-0.1,0.5c-0.2,5.1,10.899-7.8,22.8-5.5C898.6,422.1,891.5,429.2,890.5,429.6z"/>
		<path fill="#99FFFF" d="M867,389.9c-0.1,0.1-0.2,0.3-0.2,0.4C866.8,390.2,866.9,390.1,867,389.9z"/>
		<path fill="#99FFFF" d="M884.6,382.6c7.2-0.8,11.601-5.7,7.7-6.5c-8.8-1.8-20.8,5.9-25.399,13.9
			C869,387.1,881.3,382.9,884.6,382.6z"/>
	</g>
</g>
<path fill="#75D1D1" d="M575.3,928.8c63,27.5,186.5,27.5,249.4,0c11-4.8-5.9-27.5-11-37.7c-10-20.199-11-60.3-9.7-82.399
	c1.1-18.9-209.1-18.9-208,0c1.3,22.1,0.3,62.2-9.7,82.399C581.2,901.3,564.3,924,575.3,928.8z"/>
<polygon fill="#FCAD79" points="1298.6,980 1298.6,751.6 1298.6,701.7 1255.8,701.7 144.2,701.7 101.4,701.7 101.4,751.6 101.4,980 
	144.2,980 144.2,751.6 191.3,751.6 191.3,980 239.5,980 239.5,751.6 329.8,751.6 329.8,980 377.9,980 377.9,751.6 468.2,751.6 
	468.2,980 516.4,980 516.4,751.6 606.7,751.6 606.7,980 654.9,980 654.9,751.6 745.1,751.6 745.1,980 793.3,980 793.3,751.6 
	883.6,751.6 883.6,980 931.8,980 931.8,751.6 1022.1,751.6 1022.1,980 1070.2,980 1070.2,751.6 1160.5,751.6 1160.5,980 1208.7,980 
	1208.7,751.6 1255.8,751.6 1255.8,980 "/>
<path fill="#FCD1C0" d="M431.8,689.9c-17.899-20.301-87.2-21.7-99.1,0c-11.8,21.6,4.3,64.3,24.6,77.8
	C403.9,799,451.8,712.6,431.8,689.9z"/>
<path fill="#FCD1C0" d="M1042.8,767.8c20.3-13.6,36.4-56.3,24.601-77.8c-11.9-21.7-81.2-20.4-99.101,0
	C948.2,712.6,996.1,799,1042.8,767.8z"/>
</svg>
